<svg width="1280" height="705" xmlns="http://www.w3.org/2000/svg"><path d="M-103-41l2 451 52-103z" fill="#ffd4be" stroke="#ffd4be"/><path d="M-103-41l54 348 23-154z" fill="#ffe4cf" stroke="#ffe4cf"/><path d="M-103-41l77 194 10-126z" fill="#fff1e6" stroke="#fff1e6"/><path d="M-103-41l87 68 116-129z" fill="#fff3ed" stroke="#fff3ed"/><path d="M100-102L-16 27 84 55z" fill="#feede5" stroke="#feede5"/><path d="M100-102L84 55l76-21z" fill="#fee7dd" stroke="#fee7dd"/><path d="M100-102l60 136 20-84z" fill="#fee4d9" stroke="#fee4d9"/><path d="M100-102l80 52 143-43z" fill="#feded2" stroke="#feded2"/><path d="M100-102l223 9h314z" fill="#fed0c1" stroke="#fed0c1"/><path d="M100-102l537 9 716-1z" fill="#f9ada0" stroke="#f9ada0"/><path d="M180-50l-20 84 116-18z" fill="#feded1" stroke="#feded1"/><path d="M180-50l96 66 47-109z" fill="#fed9cb" stroke="#fed9cb"/><path d="M323-93L276 16l154-90z" fill="#fed1c2" stroke="#fed1c2"/><path d="M323-93l107 19 207-19z" fill="#fec5b5" stroke="#fec5b5"/><path d="M430-74L276 16l157 49z" fill="#fecdbd" stroke="#fecdbd"/><path d="M430-74l3 139 71-32z" fill="#fec5b4" stroke="#fec5b4"/><path d="M430-74l74 107 59-95z" fill="#fec2b2" stroke="#fec2b2"/><path d="M430-74l133 12 74-31z" fill="#fdbeae" stroke="#fdbeae"/><path d="M563-62l-59 95 157 31z" fill="#fdb9a8" stroke="#fdb9a8"/><path d="M563-62l98 126-24-157z" fill="#fdb7a7" stroke="#fdb7a7"/><path d="M637-93l24 157L774-40z" fill="#faaea0" stroke="#faaea0"/><path d="M637-93l137 53 147-37z" fill="#f4a199" stroke="#f4a199"/><path d="M637-93l284 16 432-17z" fill="#df8e8e" stroke="#df8e8e"/><path d="M774-40L661 64h89z" fill="#f7a495" stroke="#f7a495"/><path d="M774-40L750 64l149-13z" fill="#f29990" stroke="#f29990"/><path d="M774-40l125 91 22-128z" fill="#ed9592" stroke="#ed9592"/><path d="M921-77L899 51l90-8z" fill="#e48f8e" stroke="#e48f8e"/><path d="M921-77l68 120 28-64z" fill="#de8e8e" stroke="#de8e8e"/><path d="M921-77l96 56 104-14z" fill="#d98b8c" stroke="#d98b8c"/><path d="M921-77l200 42 101-14z" fill="#cf8689" stroke="#cf8689"/><path d="M921-77l301 28 131-45z" fill="#c58086" stroke="#c58086"/><path d="M1017-21l-28 64 117 55z" fill="#d68481" stroke="#d68481"/><path d="M1017-21l89 119 15-133z" fill="#d08486" stroke="#d08486"/><path d="M1121-35l-15 133 156-71z" fill="#c57c7e" stroke="#c57c7e"/><path d="M1121-35l141 62-40-76z" fill="#c08085" stroke="#c08085"/><path d="M1222-49l40 76 91-121z" fill="#b68082" stroke="#b68082"/><path d="M1353-94l-91 121 92 64z" fill="#b07f7e" stroke="#b07f7e"/><path d="M1353-94l1 185 34 131z" fill="#aa766c" stroke="#aa766c"/><path d="M1353-94l35 316 7 40z" fill="#a96d5d" stroke="#a96d5d"/><path d="M-16 27l-10 126L84 55z" fill="#ffe6d5" stroke="#ffe6d5"/><path d="M84 55l-110 98 93 50z" fill="#ffdac3" stroke="#ffdac3"/><path d="M84 55L67 203l86-31z" fill="#fed3b9" stroke="#fed3b9"/><path d="M84 55l69 117 7-138z" fill="#fed9c3" stroke="#fed9c3"/><path d="M160 34l-7 138L276 16z" fill="#fed5be" stroke="#fed5be"/><path d="M276 16L153 172l148 49z" fill="#fec6a9" stroke="#fec6a9"/><path d="M276 16l25 205 84-36z" fill="#febe9f" stroke="#febe9f"/><path d="M276 16l109 169 48-120z" fill="#fec3a8" stroke="#fec3a8"/><path d="M433 65l-48 120 140-3z" fill="#feb191" stroke="#feb191"/><path d="M433 65l92 117-21-149z" fill="#feb79a" stroke="#feb79a"/><path d="M504 33l21 149L661 64z" fill="#fdaf93" stroke="#fdaf93"/><path d="M661 64L525 182l133-26z" fill="#fda484" stroke="#fda484"/><path d="M661 64l-3 92 92-92z" fill="#faa187" stroke="#faa187"/><path d="M750 64l-92 92 85 41z" fill="#f8957a" stroke="#f8957a"/><path d="M750 64l-7 133L899 51z" fill="#f3907b" stroke="#f3907b"/><path d="M899 51L743 197l200-40z" fill="#ee826f" stroke="#ee826f"/><path d="M899 51l44 106 46-114z" fill="#e38479" stroke="#e38479"/><path d="M989 43l-46 114 81 44z" fill="#dd796a" stroke="#dd796a"/><path d="M989 43l35 158 82-103z" fill="#d67a6d" stroke="#d67a6d"/><path d="M1106 98l-82 103 154-46z" fill="#cd6e61" stroke="#cd6e61"/><path d="M1106 98l72 57 84-128z" fill="#c3736d" stroke="#c3736d"/><path d="M1262 27l-84 128 176-64z" fill="#b8736a" stroke="#b8736a"/><path d="M1354 91l-176 64 43 59z" fill="#ba685b" stroke="#ba685b"/><path d="M1354 91l-133 123 167 8z" fill="#b06453" stroke="#b06453"/><path d="M-26 153l-23 154L67 203z" fill="#ffcdb5" stroke="#ffcdb5"/><path d="M67 203L-49 307l72 35z" fill="#ffbea5" stroke="#ffbea5"/><path d="M67 203L23 342l148-69z" fill="#feba9e" stroke="#feba9e"/><path d="M67 203l104 70-18-101z" fill="#fec1a4" stroke="#fec1a4"/><path d="M153 172l18 101 130-52z" fill="#feb898" stroke="#feb898"/><path d="M301 221l-130 52 99 63z" fill="#fea989" stroke="#fea989"/><path d="M301 221l-31 115 190-78z" fill="#fea17f" stroke="#fea17f"/><path d="M301 221l159 37-75-73z" fill="#fea886" stroke="#fea886"/><path d="M385 185l75 73 65-76z" fill="#fea381" stroke="#fea381"/><path d="M525 182l-65 76 116 81z" fill="#fe926f" stroke="#fe926f"/><path d="M525 182l51 157 89-15z" fill="#fd8865" stroke="#fd8865"/><path d="M525 182l140 142-7-168z" fill="#fd926f" stroke="#fd926f"/><path d="M658 156l7 168 78-127z" fill="#fa8767" stroke="#fa8767"/><path d="M743 197l-78 127 72-30z" fill="#f87a5b" stroke="#f87a5b"/><path d="M743 197l-6 97 149-21z" fill="#f37359" stroke="#f37359"/><path d="M743 197l143 76 57-116z" fill="#ee735d" stroke="#ee735d"/><path d="M943 157l-57 116 108 2z" fill="#e36854" stroke="#e36854"/><path d="M943 157l51 118 30-74z" fill="#dd6957" stroke="#dd6957"/><path d="M1024 201l-30 74 138 10z" fill="#d45c4b" stroke="#d45c4b"/><path d="M1024 201l108 84 46-130z" fill="#cc6052" stroke="#cc6052"/><path d="M1178 155l-46 130 89-71z" fill="#c45b4e" stroke="#c45b4e"/><path d="M1221 214l-89 71 106 42z" fill="#c14f42" stroke="#c14f42"/><path d="M1221 214l17 113 157-65z" fill="#b55140" stroke="#b55140"/><path d="M1221 214l174 48-7-40z" fill="#ae5845" stroke="#ae5845"/><path d="M-49 307l-52 103 124-68z" fill="#ffb69e" stroke="#ffb69e"/><path d="M23 342l-124 68 37 87z" fill="#ffa293" stroke="#ffa293"/><path d="M23 342l-87 155L84 378z" fill="#ffa08d" stroke="#ffa08d"/><path d="M23 342l61 36 87-105z" fill="#fead91" stroke="#fead91"/><path d="M171 273L84 378h84z" fill="#fea688" stroke="#fea688"/><path d="M171 273l-3 105 102-42z" fill="#fea383" stroke="#fea383"/><path d="M270 336l-102 42 130 60z" fill="#fe9073" stroke="#fe9073"/><path d="M270 336l28 102 148 8z" fill="#fe8065" stroke="#fe8065"/><path d="M270 336l176 110 14-188z" fill="#fe8d6a" stroke="#fe8d6a"/><path d="M460 258l-14 188 53-12z" fill="#fe7c5c" stroke="#fe7c5c"/><path d="M460 258l39 176 77-95z" fill="#fe825f" stroke="#fe825f"/><path d="M576 339l-77 95 170-44z" fill="#fd6f50" stroke="#fd6f50"/><path d="M576 339l93 51-4-66z" fill="#fd7552" stroke="#fd7552"/><path d="M665 324l4 66 68-96z" fill="#fa7151" stroke="#fa7151"/><path d="M737 294l-68 96 155 53z" fill="#f65e45" stroke="#f65e45"/><path d="M737 294l87 149 62-170z" fill="#f15e45" stroke="#f15e45"/><path d="M886 273l-62 170 85-46z" fill="#ec4f3b" stroke="#ec4f3b"/><path d="M886 273l23 124 85-122z" fill="#e55844" stroke="#e55844"/><path d="M994 275l-85 122 103 3z" fill="#df4c3a" stroke="#df4c3a"/><path d="M994 275l18 125 120-115z" fill="#d54f3e" stroke="#d54f3e"/><path d="M1132 285l-120 115 131 45z" fill="#ce3d31" stroke="#ce3d31"/><path d="M1132 285l11 160 95-118z" fill="#c43f33" stroke="#c43f33"/><path d="M1238 327l-95 118 93 8z" fill="#c02e27" stroke="#c02e27"/><path d="M1238 327l-2 126 124-70z" fill="#b63428" stroke="#b63428"/><path d="M1238 327l122 56 35-121z" fill="#af4532" stroke="#af4532"/><path d="M1395 262l-35 121 11 315z" fill="#a9221b" stroke="#a9221b"/><path d="M-101 410l12 337 25-250z" fill="#eb908b" stroke="#eb908b"/><path d="M84 378L-64 497l142 24z" fill="#ff8c80" stroke="#ff8c80"/><path d="M84 378l-6 143 90-143z" fill="#fe907d" stroke="#fe907d"/><path d="M168 378L78 521l96 61z" fill="#f87d70" stroke="#f87d70"/><path d="M168 378l6 204 124-144z" fill="#fe7968" stroke="#fe7968"/><path d="M298 438L174 582l150-86z" fill="#f57160" stroke="#f57160"/><path d="M298 438l26 58 122-50z" fill="#fe6e5a" stroke="#fe6e5a"/><path d="M446 446l-122 50 119 84z" fill="#f56351" stroke="#f56351"/><path d="M446 446l-3 134 82-10z" fill="#ee5b49" stroke="#ee5b49"/><path d="M446 446l79 124-26-136z" fill="#fa5d49" stroke="#fa5d49"/><path d="M499 434l26 136 120-57z" fill="#f45542" stroke="#f45542"/><path d="M499 434l146 79 24-123z" fill="#fd5b44" stroke="#fd5b44"/><path d="M669 390l-24 123 179-70z" fill="#f84c3a" stroke="#f84c3a"/><path d="M824 443l-179 70 110 64z" fill="#ec3e32" stroke="#ec3e32"/><path d="M824 443l-69 134 127-29z" fill="#e4322b" stroke="#e4322b"/><path d="M824 443l58 105 27-151z" fill="#ec322b" stroke="#ec322b"/><path d="M909 397l-27 151 104-24z" fill="#e02b26" stroke="#e02b26"/><path d="M909 397l77 127 26-124z" fill="#df322b" stroke="#df322b"/><path d="M1012 400l-26 124 157-79z" fill="#d52825" stroke="#d52825"/><path d="M1143 445l-157 79 165 13z" fill="#c71e1f" stroke="#c71e1f"/><path d="M1143 445l8 92 85-84z" fill="#c21a1c" stroke="#c21a1c"/><path d="M1236 453l-85 84 92-4z" fill="#b6181a" stroke="#b6181a"/><path d="M1236 453l7 80 101 14z" fill="#ad1817" stroke="#ad1817"/><path d="M1236 453l108 94 16-164z" fill="#b11e19" stroke="#b11e19"/><path d="M1360 383l-16 164 27 151z" fill="#991514" stroke="#991514"/><path d="M-64 497l-25 250 68-71z" fill="#d58684" stroke="#d58684"/><path d="M-64 497l43 179 99-155z" fill="#e78680" stroke="#e78680"/><path d="M78 521l-99 155 84-10z" fill="#d97e78" stroke="#d97e78"/><path d="M78 521L63 666l111-84z" fill="#e17a70" stroke="#e17a70"/><path d="M174 582L63 666l139-48z" fill="#d9736a" stroke="#d9736a"/><path d="M174 582l28 36 122-122z" fill="#e66f61" stroke="#e66f61"/><path d="M324 496L202 618l99 37z" fill="#e0695b" stroke="#e0695b"/><path d="M324 496l-23 159 95-32z" fill="#e06354" stroke="#e06354"/><path d="M324 496l72 127 47-43z" fill="#e66050" stroke="#e66050"/><path d="M443 580l-47 43 104 33z" fill="#d95647" stroke="#d95647"/><path d="M443 580l57 76 25-86z" fill="#dd5444" stroke="#dd5444"/><path d="M525 570l-25 86 194 22z" fill="#d54a3b" stroke="#d54a3b"/><path d="M525 570l169 108-49-165z" fill="#e04939" stroke="#e04939"/><path d="M645 513l49 165 61-101z" fill="#dc3e32" stroke="#dc3e32"/><path d="M755 577l-61 101 100-13z" fill="#cc332c" stroke="#cc332c"/><path d="M755 577l39 88 88-117z" fill="#d22e28" stroke="#d22e28"/><path d="M882 548l-88 117 139 13z" fill="#c52422" stroke="#c52422"/><path d="M882 548l51 130 53-154z" fill="#c82322" stroke="#c82322"/><path d="M986 524l-53 154 73 23z" fill="#b61c1e" stroke="#b61c1e"/><path d="M986 524l20 177 117-53z" fill="#b0181c" stroke="#b0181c"/><path d="M986 524l137 124 28-111z" fill="#b7191c" stroke="#b7191c"/><path d="M1151 537l-28 111 120-115z" fill="#ab1319" stroke="#ab1319"/><path d="M1243 533l-120 115 131 44z" fill="#9a0f15" stroke="#9a0f15"/><path d="M1243 533l11 159 90-145z" fill="#981214" stroke="#981214"/><path d="M1344 547l-90 145 117 6z" fill="#850d10" stroke="#850d10"/><path d="M-21 676l-68 71 142 74z" fill="#ba7a7a" stroke="#ba7a7a"/><path d="M-21 676l74 145 10-155z" fill="#c17775" stroke="#c17775"/><path d="M63 666L53 821l126-46z" fill="#b86e6a" stroke="#b86e6a"/><path d="M63 666l116 109 23-157z" fill="#c96e67" stroke="#c96e67"/><path d="M202 618l-23 157 122-120z" fill="#c9665d" stroke="#c9665d"/><path d="M301 655L179 775l88 47z" fill="#b85f57" stroke="#b85f57"/><path d="M301 655l-34 167 126-10z" fill="#b5574f" stroke="#b5574f"/><path d="M301 655l92 157 3-189z" fill="#c6584d" stroke="#c6584d"/><path d="M396 623l-3 189 107-156z" fill="#c65246" stroke="#c65246"/><path d="M500 656L393 812l169-8z" fill="#b7483e" stroke="#b7483e"/><path d="M500 656l62 148 75-30z" fill="#b94237" stroke="#b94237"/><path d="M500 656l137 118 57-96z" fill="#c44135" stroke="#c44135"/><path d="M694 678l-57 96 184-14z" fill="#b6302a" stroke="#b6302a"/><path d="M694 678l127 82-27-95z" fill="#bb2c27" stroke="#bb2c27"/><path d="M794 665l27 95 112-82z" fill="#b62020" stroke="#b62020"/><path d="M933 678l-112 82 100 60z" fill="#a4191c" stroke="#a4191c"/><path d="M933 678l-12 142 85-119z" fill="#a0161b" stroke="#a0161b"/><path d="M1006 701l-85 119 124-76z" fill="#961218" stroke="#961218"/><path d="M1006 701l39 43 78-96z" fill="#9b1118" stroke="#9b1118"/><path d="M1123 648l-78 96 118 39z" fill="#8d0c15" stroke="#8d0c15"/><path d="M1123 648l40 135 75-46z" fill="#850712" stroke="#850712"/><path d="M1123 648l115 89 16-45z" fill="#890a12" stroke="#890a12"/><path d="M1254 692l-16 45 133-39z" fill="#7a080e" stroke="#7a080e"/><path d="M1371 698l-133 39 126 70z" fill="#6b060b" stroke="#6b060b"/><path d="M53 821l214 1-88-47z" fill="#ab635f" stroke="#ab635f"/><path d="M267 822l654-2-528-8z" fill="#a84037" stroke="#a84037"/><path d="M393 812l528 8-359-16z" fill="#a9372f" stroke="#a9372f"/><path d="M562 804l359 16-284-46z" fill="#a72d28" stroke="#a72d28"/><path d="M637 774l284 46-100-60z" fill="#a52221" stroke="#a52221"/><path d="M921 820l443-13-201-24z" fill="#750310" stroke="#750310"/><path d="M921 820l242-37-118-39z" fill="#880c15" stroke="#880c15"/><path d="M1163 783l201 24-126-70z" fill="#6e030d" stroke="#6e030d"/></svg>